<svg width="21" height="20" viewBox="0 0 21 20" fill="none" xmlns="http://www.w3.org/2000/svg">
<path d="M0.750244 13.6953C0.0328052 14.1096 -0.213008 15.0269 0.201206 15.7444C0.61542 16.4618 1.53281 16.7076 2.25024 16.2934L1.50024 14.9944L0.750244 13.6953ZM20.2696 5.38261C20.4841 4.58241 20.0092 3.75991 19.209 3.5455L6.16898 0.0514389C5.36878 -0.162974 4.54628 0.3119 4.33186 1.1121C4.11745 1.9123 4.59233 2.7348 5.39253 2.94922L16.9836 6.05505L13.8778 17.6462C13.6634 18.4464 14.1383 19.2689 14.9385 19.4833C15.7387 19.6977 16.5612 19.2228 16.7756 18.4226L20.2696 5.38261ZM1.50024 14.9944L2.25024 16.2934L19.5708 6.29342L18.8208 4.99438L18.0708 3.69535L0.750244 13.6953L1.50024 14.9944Z" fill="#B9FF66"/>
</svg>
